<svg xmlns="http://www.w3.org/2000/svg" xmlns:xlink="http://www.w3.org/1999/xlink" id="Layer_1" viewBox="0 0 81 72.1"><style>.st0{fill:#7FCCF7;} .st1{opacity:0.3;clip-path:url(#SVGID_2_);} .st2{opacity:0.3;fill:#3899EC;stroke:#FFFFFF;stroke-width:0.5;stroke-miterlimit:10;} .st3{opacity:0.3;} .st4{fill:#3899EC;} .st5{fill:none;stroke:#FFFFFF;stroke-width:0.5;stroke-miterlimit:10;} .st6{fill:none;stroke:#FFFFFF;stroke-width:0.5;stroke-miterlimit:10;stroke-dasharray:0.995,0.995;} .st7{fill:none;stroke:#FFFFFF;stroke-width:0.5;stroke-miterlimit:10;stroke-dasharray:0.9503,0.9503;} .st8{fill:none;stroke:#FFFFFF;stroke-width:0.5;stroke-miterlimit:10;stroke-dasharray:0.9656,0.9656;} .st9{fill:none;stroke:#FFFFFF;stroke-width:0.5;stroke-miterlimit:10;stroke-dasharray:0.9959,0.9959;} .st10{fill:none;stroke:#FFFFFF;stroke-width:0.5;stroke-miterlimit:10;stroke-dasharray:0.969,0.969;} .st11{fill:none;stroke:#FFFFFF;stroke-width:0.5;stroke-miterlimit:10;stroke-dasharray:1.0471,1.0471;} .st12{fill:#FFFFFF;} .st13{font-family:'HelveticaNeueW01-Thin';} .st14{font-size:30.1386px;} .st15{fill:#FCFDFF;}</style><circle class="st0" cx="40.5" cy="36.4" r="30"/><defs><circle id="SVGID_1_" cx="40.5" cy="36.4" r="30"/></defs><clipPath id="SVGID_2_"><use xlink:href="#SVGID_1_" overflow="visible"/></clipPath><g class="st1"><path class="st2" d="M-79.1 73.2V54.8h17.2v18.4"/><g class="st3"><path class="st4" d="M-70.5 55.3v17.9"/><path class="st5" d="M-70.5 55.3v.5"/><path class="st6" d="M-70.5 56.8v15.4"/><path class="st5" d="M-70.5 72.7v.5"/></g><g class="st3"><path class="st4" d="M-61.9 64h-17.2"/><path class="st5" d="M-61.9 64h-.5"/><path class="st7" d="M-63.4 64h-14.7"/><path class="st5" d="M-78.6 64h-.5"/></g><path class="st2" d="M-79.1 54.3V36.4h17.2v17.9"/><g class="st3"><path class="st4" d="M-70.5 36.9v17.4"/><path class="st5" d="M-70.5 36.9v.5"/><path class="st8" d="M-70.5 38.4v15"/><path class="st5" d="M-70.5 53.8v.5"/></g><g class="st3"><path class="st4" d="M-61.9 45.6h-17.2"/><path class="st5" d="M-61.9 45.6h-.5"/><path class="st7" d="M-63.4 45.6h-14.7"/><path class="st5" d="M-78.6 45.6h-.5"/></g><path class="st2" d="M-61.5 54.8h16.7v18.4"/><g class="st3"><path class="st4" d="M-53.4 55.3v17.9"/><path class="st5" d="M-53.4 55.3v.5"/><path class="st9" d="M-53.4 56.8v15.4"/><path class="st5" d="M-53.4 72.7v.5"/></g><g class="st3"><path class="st4" d="M-44.8 64h-17.1"/><path class="st5" d="M-44.8 64h-.5"/><path class="st7" d="M-46.2 64H-61"/><path class="st5" d="M-61.4 64h-.5"/></g><path class="st2" d="M-61.5 36.4h16.7v17.9"/><g class="st3"><path class="st4" d="M-53.4 36.9v17.4"/><path class="st5" d="M-53.4 36.9v.5"/><path class="st10" d="M-53.4 38.3v15.1"/><path class="st5" d="M-53.4 53.8v.5"/></g><g class="st3"><path class="st4" d="M-45.2 45.6h-16.7"/><path class="st5" d="M-45.2 45.6h-.5"/><path class="st11" d="M-46.8 45.6h-14.1"/><path class="st5" d="M-61.4 45.6h-.5"/></g><path class="st2" d="M-78.6 72.7h33.4m-33.9 36.8V91.1h17.2v18.4"/><g class="st3"><path class="st4" d="M-70.5 91.6v17.9"/><path class="st5" d="M-70.5 91.6v.5"/><path class="st6" d="M-70.5 93.1v15.4"/><path class="st5" d="M-70.5 109v.5"/></g><g class="st3"><path class="st4" d="M-61.9 100.3h-17.2"/><path class="st5" d="M-61.9 100.3h-.5"/><path class="st7" d="M-63.4 100.3h-14.7"/><path class="st5" d="M-78.6 100.3h-.5"/></g><path class="st2" d="M-79.1 90.6V72.7h17.2v17.9"/><g class="st3"><path class="st4" d="M-70.5 73.2v17.4"/><path class="st5" d="M-70.5 73.2v.5"/><path class="st8" d="M-70.5 74.7v15"/><path class="st5" d="M-70.5 90.1v.5"/></g><g class="st3"><path class="st4" d="M-61.9 81.9h-17.2"/><path class="st5" d="M-61.9 81.9h-.5"/><path class="st7" d="M-63.4 81.9h-14.7"/><path class="st5" d="M-78.6 81.9h-.5"/></g><path class="st2" d="M-61.5 91.1h16.7v18.4"/><g class="st3"><path class="st4" d="M-53.4 91.6v17.9"/><path class="st5" d="M-53.4 91.6v.5"/><path class="st9" d="M-53.4 93.1v15.4"/><path class="st5" d="M-53.4 109v.5"/></g><g class="st3"><path class="st4" d="M-44.8 100.3h-17.1"/><path class="st5" d="M-44.8 100.3h-.5"/><path class="st7" d="M-46.2 100.3H-61"/><path class="st5" d="M-61.4 100.3h-.5"/></g><path class="st2" d="M-61.5 72.7h16.7v17.9"/><g class="st3"><path class="st4" d="M-53.4 73.2v17.4"/><path class="st5" d="M-53.4 73.2v.5"/><path class="st10" d="M-53.4 74.6v15.1"/><path class="st5" d="M-53.4 90.1v.5"/></g><g class="st3"><path class="st4" d="M-45.2 81.9h-16.7"/><path class="st5" d="M-45.2 81.9h-.5"/><path class="st11" d="M-46.8 81.9h-14.1"/><path class="st5" d="M-61.4 81.9h-.5"/></g><path class="st2" d="M-78.6 109h33.4m-68.2.5V91.1h17.2v18.4"/><g class="st3"><path class="st4" d="M-104.8 91.6v17.9"/><path class="st5" d="M-104.8 91.6v.5"/><path class="st6" d="M-104.8 93.1v15.4"/><path class="st5" d="M-104.8 109v.5"/></g><g class="st3"><path class="st4" d="M-96.2 100.3h-17.2"/><path class="st5" d="M-96.2 100.3h-.5"/><path class="st7" d="M-97.7 100.3h-14.7"/><path class="st5" d="M-112.9 100.3h-.5"/></g><path class="st2" d="M-113.4 90.6V72.7h17.2v17.9"/><g class="st3"><path class="st4" d="M-104.8 73.2v17.4"/><path class="st5" d="M-104.8 73.2v.5"/><path class="st8" d="M-104.8 74.7v15"/><path class="st5" d="M-104.8 90.1v.5"/></g><g class="st3"><path class="st4" d="M-96.2 81.9h-17.2"/><path class="st5" d="M-96.2 81.9h-.5"/><path class="st7" d="M-97.7 81.9h-14.7"/><path class="st5" d="M-112.9 81.9h-.5"/></g><path class="st2" d="M-95.8 91.1h16.7v18.4"/><g class="st3"><path class="st4" d="M-87.7 91.6v17.9"/><path class="st5" d="M-87.7 91.6v.5"/><path class="st9" d="M-87.7 93.1v15.4"/><path class="st5" d="M-87.7 109v.5"/></g><g class="st3"><path class="st4" d="M-79.1 100.3h-17.1"/><path class="st5" d="M-79.1 100.3h-.5"/><path class="st7" d="M-80.5 100.3h-14.8"/><path class="st5" d="M-95.7 100.3h-.5"/></g><path class="st2" d="M-95.8 72.7h16.7v17.9"/><g class="st3"><path class="st4" d="M-87.7 73.2v17.4"/><path class="st5" d="M-87.7 73.2v.5"/><path class="st10" d="M-87.7 74.6v15.1"/><path class="st5" d="M-87.7 90.1v.5"/></g><g class="st3"><path class="st4" d="M-79.5 81.9h-16.7"/><path class="st5" d="M-79.5 81.9h-.5"/><path class="st11" d="M-81.1 81.9h-14.1"/><path class="st5" d="M-95.7 81.9h-.5"/></g><path class="st2" d="M-112.9 109h33.4m-33.9-35.8V54.8h17.2v18.4"/><g class="st3"><path class="st4" d="M-104.8 55.3v17.9"/><path class="st5" d="M-104.8 55.3v.5"/><path class="st6" d="M-104.8 56.8v15.4"/><path class="st5" d="M-104.8 72.7v.5"/></g><g class="st3"><path class="st4" d="M-96.2 64h-17.2"/><path class="st5" d="M-96.2 64h-.5"/><path class="st7" d="M-97.7 64h-14.7"/><path class="st5" d="M-112.9 64h-.5"/></g><path class="st2" d="M-113.4 54.3V36.4h17.2v17.9"/><g class="st3"><path class="st4" d="M-104.8 36.9v17.4"/><path class="st5" d="M-104.8 36.9v.5"/><path class="st8" d="M-104.8 38.4v15"/><path class="st5" d="M-104.8 53.8v.5"/></g><g class="st3"><path class="st4" d="M-96.2 45.6h-17.2"/><path class="st5" d="M-96.2 45.6h-.5"/><path class="st7" d="M-97.7 45.6h-14.7"/><path class="st5" d="M-112.9 45.6h-.5"/></g><path class="st2" d="M-95.8 54.8h16.7v18.4"/><g class="st3"><path class="st4" d="M-87.7 55.3v17.9"/><path class="st5" d="M-87.7 55.3v.5"/><path class="st9" d="M-87.7 56.8v15.4"/><path class="st5" d="M-87.7 72.7v.5"/></g><g class="st3"><path class="st4" d="M-79.1 64h-17.1"/><path class="st5" d="M-79.1 64h-.5"/><path class="st7" d="M-80.5 64h-14.8"/><path class="st5" d="M-95.7 64h-.5"/></g><path class="st2" d="M-95.8 36.4h16.7v17.9"/><g class="st3"><path class="st4" d="M-87.7 36.9v17.4"/><path class="st5" d="M-87.7 36.9v.5"/><path class="st10" d="M-87.7 38.3v15.1"/><path class="st5" d="M-87.7 53.8v.5"/></g><g class="st3"><path class="st4" d="M-79.5 45.6h-16.7"/><path class="st5" d="M-79.5 45.6h-.5"/><path class="st11" d="M-81.1 45.6h-14.1"/><path class="st5" d="M-95.7 45.6h-.5"/></g><path class="st2" d="M-112.9 72.7h33.4m69 .5V54.8H6.7v18.4"/><g class="st3"><path class="st4" d="M-1.9 55.3v17.9"/><path class="st5" d="M-1.9 55.3v.5"/><path class="st6" d="M-1.9 56.8v15.4"/><path class="st5" d="M-1.9 72.7v.5"/></g><g class="st3"><path class="st4" d="M6.7 64h-17.2"/><path class="st5" d="M6.7 64h-.5"/><path class="st7" d="M5.2 64H-9.5"/><path class="st5" d="M-10 64h-.5"/></g><path class="st2" d="M-10.5 54.3V36.4H6.7v17.9"/><g class="st3"><path class="st4" d="M-1.9 36.9v17.4"/><path class="st5" d="M-1.9 36.9v.5"/><path class="st8" d="M-1.9 38.4v15"/><path class="st5" d="M-1.9 53.8v.5"/></g><g class="st3"><path class="st4" d="M6.7 45.6h-17.2"/><path class="st5" d="M6.7 45.6h-.5"/><path class="st7" d="M5.2 45.6H-9.5"/><path class="st5" d="M-10 45.6h-.5"/></g><path class="st2" d="M7.1 54.8h16.7v18.4"/><g class="st3"><path class="st4" d="M15.3 55.3v17.9"/><path class="st5" d="M15.3 55.3v.5"/><path class="st9" d="M15.3 56.8v15.4"/><path class="st5" d="M15.3 72.7v.5"/></g><g class="st3"><path class="st4" d="M23.8 64H6.7"/><path class="st5" d="M23.8 64h-.5"/><path class="st7" d="M22.4 64H7.7"/><path class="st5" d="M7.2 64h-.5"/></g><path class="st2" d="M7.1 36.4h16.7v17.9"/><g class="st3"><path class="st4" d="M15.3 36.9v17.4"/><path class="st5" d="M15.3 36.9v.5"/><path class="st10" d="M15.3 38.3v15.1"/><path class="st5" d="M15.3 53.8v.5"/></g><g class="st3"><path class="st4" d="M23.4 45.6H6.7"/><path class="st5" d="M23.4 45.6h-.5"/><path class="st11" d="M21.8 45.6H7.7"/><path class="st5" d="M7.2 45.6h-.5"/></g><path class="st2" d="M-10 72.7h33.4m-33.9 36.8V91.1H6.7v18.4"/><g class="st3"><path class="st4" d="M-1.9 91.6v17.9"/><path class="st5" d="M-1.9 91.6v.5"/><path class="st6" d="M-1.9 93.1v15.4"/><path class="st5" d="M-1.9 109v.5"/></g><g class="st3"><path class="st4" d="M6.7 100.3h-17.2"/><path class="st5" d="M6.7 100.3h-.5"/><path class="st7" d="M5.2 100.3H-9.5"/><path class="st5" d="M-10 100.3h-.5"/></g><path class="st2" d="M-10.5 90.6V72.7H6.7v17.9"/><g class="st3"><path class="st4" d="M-1.9 73.2v17.4"/><path class="st5" d="M-1.9 73.2v.5"/><path class="st8" d="M-1.9 74.7v15"/><path class="st5" d="M-1.9 90.1v.5"/></g><g class="st3"><path class="st4" d="M6.7 81.9h-17.2"/><path class="st5" d="M6.7 81.9h-.5"/><path class="st7" d="M5.2 81.9H-9.5"/><path class="st5" d="M-10 81.9h-.5"/></g><path class="st2" d="M7.1 91.1h16.7v18.4"/><g class="st3"><path class="st4" d="M15.3 91.6v17.9"/><path class="st5" d="M15.3 91.6v.5"/><path class="st9" d="M15.3 93.1v15.4"/><path class="st5" d="M15.3 109v.5"/></g><g class="st3"><path class="st4" d="M23.8 100.3H6.7"/><path class="st5" d="M23.8 100.3h-.5"/><path class="st7" d="M22.4 100.3H7.7"/><path class="st5" d="M7.2 100.3h-.5"/></g><path class="st2" d="M7.1 72.7h16.7v17.9"/><g class="st3"><path class="st4" d="M15.3 73.2v17.4"/><path class="st5" d="M15.3 73.2v.5"/><path class="st10" d="M15.3 74.6v15.1"/><path class="st5" d="M15.3 90.1v.5"/></g><g class="st3"><path class="st4" d="M23.4 81.9H6.7"/><path class="st5" d="M23.4 81.9h-.5"/><path class="st11" d="M21.8 81.9H7.7"/><path class="st5" d="M7.2 81.9h-.5"/></g><path class="st2" d="M-10 109h33.4m-68.2.5V91.1h17.2v18.4"/><g class="st3"><path class="st4" d="M-36.2 91.6v17.9"/><path class="st5" d="M-36.2 91.6v.5"/><path class="st6" d="M-36.2 93.1v15.4"/><path class="st5" d="M-36.2 109v.5"/></g><g class="st3"><path class="st4" d="M-27.6 100.3h-17.2"/><path class="st5" d="M-27.6 100.3h-.5"/><path class="st7" d="M-29.1 100.3h-14.7"/><path class="st5" d="M-44.3 100.3h-.5"/></g><path class="st2" d="M-44.8 90.6V72.7h17.2v17.9"/><g class="st3"><path class="st4" d="M-36.2 73.2v17.4"/><path class="st5" d="M-36.2 73.2v.5"/><path class="st8" d="M-36.2 74.7v15"/><path class="st5" d="M-36.2 90.1v.5"/></g><g class="st3"><path class="st4" d="M-27.6 81.9h-17.2"/><path class="st5" d="M-27.6 81.9h-.5"/><path class="st7" d="M-29.1 81.9h-14.7"/><path class="st5" d="M-44.3 81.9h-.5"/></g><path class="st2" d="M-27.2 91.1h16.7v18.4"/><g class="st3"><path class="st4" d="M-19 91.6v17.9"/><path class="st5" d="M-19 91.6v.5"/><path class="st9" d="M-19 93.1v15.4"/><path class="st5" d="M-19 109v.5"/></g><g class="st3"><path class="st4" d="M-10.5 100.3h-17.1"/><path class="st5" d="M-10.5 100.3h-.5"/><path class="st7" d="M-11.9 100.3h-14.8"/><path class="st5" d="M-27.1 100.3h-.5"/></g><path class="st2" d="M-27.2 72.7h16.7v17.9"/><g class="st3"><path class="st4" d="M-19 73.2v17.4"/><path class="st5" d="M-19 73.2v.5"/><path class="st10" d="M-19 74.6v15.1"/><path class="st5" d="M-19 90.1v.5"/></g><g class="st3"><path class="st4" d="M-10.9 81.9h-16.7"/><path class="st5" d="M-10.9 81.9h-.5"/><path class="st11" d="M-12.5 81.9h-14.1"/><path class="st5" d="M-27.1 81.9h-.5"/></g><path class="st2" d="M-44.3 109h33.4m-33.9-35.8V54.8h17.2v18.4"/><g class="st3"><path class="st4" d="M-36.2 55.3v17.9"/><path class="st5" d="M-36.2 55.3v.5"/><path class="st6" d="M-36.2 56.8v15.4"/><path class="st5" d="M-36.2 72.7v.5"/></g><g class="st3"><path class="st4" d="M-27.6 64h-17.2"/><path class="st5" d="M-27.6 64h-.5"/><path class="st7" d="M-29.1 64h-14.7"/><path class="st5" d="M-44.3 64h-.5"/></g><path class="st2" d="M-44.8 54.3V36.4h17.2v17.9"/><g class="st3"><path class="st4" d="M-36.2 36.9v17.4"/><path class="st5" d="M-36.2 36.9v.5"/><path class="st8" d="M-36.2 38.4v15"/><path class="st5" d="M-36.2 53.8v.5"/></g><g class="st3"><path class="st4" d="M-27.6 45.6h-17.2"/><path class="st5" d="M-27.6 45.6h-.5"/><path class="st7" d="M-29.1 45.6h-14.7"/><path class="st5" d="M-44.3 45.6h-.5"/></g><path class="st2" d="M-27.2 54.8h16.7v18.4"/><g class="st3"><path class="st4" d="M-19 55.3v17.9"/><path class="st5" d="M-19 55.3v.5"/><path class="st9" d="M-19 56.8v15.4"/><path class="st5" d="M-19 72.7v.5"/></g><g class="st3"><path class="st4" d="M-10.5 64h-17.1"/><path class="st5" d="M-10.5 64h-.5"/><path class="st7" d="M-11.9 64h-14.8"/><path class="st5" d="M-27.1 64h-.5"/></g><path class="st2" d="M-27.2 36.4h16.7v17.9"/><g class="st3"><path class="st4" d="M-19 36.9v17.4"/><path class="st5" d="M-19 36.9v.5"/><path class="st10" d="M-19 38.3v15.1"/><path class="st5" d="M-19 53.8v.5"/></g><g class="st3"><path class="st4" d="M-10.9 45.6h-16.7"/><path class="st5" d="M-10.9 45.6h-.5"/><path class="st11" d="M-12.5 45.6h-14.1"/><path class="st5" d="M-27.1 45.6h-.5"/></g><path class="st2" d="M-44.3 72.7h33.4M-79.1.1v-18.4h17.2V.1"/><g class="st3"><path class="st4" d="M-70.5-17.8V.1"/><path class="st5" d="M-70.5-17.8v.5"/><path class="st6" d="M-70.5-16.3V-.9"/><path class="st5" d="M-70.5-.4v.5"/></g><g class="st3"><path class="st4" d="M-61.9-9.1h-17.2"/><path class="st5" d="M-61.9-9.1h-.5"/><path class="st7" d="M-63.4-9.1h-14.7"/><path class="st5" d="M-78.6-9.1h-.5"/></g><path class="st2" d="M-79.1-18.7v-17.9h17.2v17.9"/><g class="st3"><path class="st4" d="M-70.5-36.1v17.4"/><path class="st5" d="M-70.5-36.1v.5"/><path class="st8" d="M-70.5-34.7v15"/><path class="st5" d="M-70.5-19.2v.5"/></g><g class="st3"><path class="st4" d="M-61.9-27.5h-17.2"/><path class="st5" d="M-61.9-27.5h-.5"/><path class="st7" d="M-63.4-27.5h-14.7"/><path class="st5" d="M-78.6-27.5h-.5"/></g><path class="st2" d="M-61.5-18.3h16.7V.1"/><g class="st3"><path class="st4" d="M-53.4-17.8V.1"/><path class="st5" d="M-53.4-17.8v.5"/><path class="st9" d="M-53.4-16.3V-.9"/><path class="st5" d="M-53.4-.4v.5"/></g><g class="st3"><path class="st4" d="M-44.8-9.1h-17.1"/><path class="st5" d="M-44.8-9.1h-.5"/><path class="st7" d="M-46.2-9.1H-61"/><path class="st5" d="M-61.4-9.1h-.5"/></g><path class="st2" d="M-61.5-36.6h16.7v17.9"/><g class="st3"><path class="st4" d="M-53.4-36.2v17.5"/><path class="st5" d="M-53.4-36.2v.5"/><path class="st10" d="M-53.4-34.7v15"/><path class="st5" d="M-53.4-19.2v.5"/></g><g class="st3"><path class="st4" d="M-45.2-27.5h-16.7"/><path class="st5" d="M-45.2-27.5h-.5"/><path class="st11" d="M-46.8-27.5h-14.1"/><path class="st5" d="M-61.4-27.5h-.5"/></g><path class="st2" d="M-78.6-.3h33.4m-33.9 36.7V18h17.2v18.4"/><g class="st3"><path class="st4" d="M-70.5 18.5v17.9"/><path class="st5" d="M-70.5 18.5v.5"/><path class="st6" d="M-70.5 20v15.4"/><path class="st5" d="M-70.5 35.9v.5"/></g><g class="st3"><path class="st4" d="M-61.9 27.2h-17.2"/><path class="st5" d="M-61.9 27.2h-.5"/><path class="st7" d="M-63.4 27.2h-14.7"/><path class="st5" d="M-78.6 27.2h-.5"/></g><path class="st2" d="M-79.1 17.6V-.3h17.2v17.9"/><g class="st3"><path class="st4" d="M-70.5.2v17.4"/><path class="st5" d="M-70.5.2v.5"/><path class="st8" d="M-70.5 1.6v15"/><path class="st5" d="M-70.5 17.1v.5"/></g><g class="st3"><path class="st4" d="M-61.9 8.8h-17.2"/><path class="st5" d="M-61.9 8.8h-.5"/><path class="st7" d="M-63.4 8.8h-14.7"/><path class="st5" d="M-78.6 8.8h-.5"/></g><path class="st2" d="M-61.5 18h16.7v18.4"/><g class="st3"><path class="st4" d="M-53.4 18.5v17.9"/><path class="st5" d="M-53.4 18.5v.5"/><path class="st9" d="M-53.4 20v15.4"/><path class="st5" d="M-53.4 35.9v.5"/></g><g class="st3"><path class="st4" d="M-44.8 27.2h-17.1"/><path class="st5" d="M-44.8 27.2h-.5"/><path class="st7" d="M-46.2 27.2H-61"/><path class="st5" d="M-61.4 27.2h-.5"/></g><path class="st2" d="M-61.5-.3h16.7v17.9"/><g class="st3"><path class="st4" d="M-53.4.1v17.5"/><path class="st5" d="M-53.4.1v.5"/><path class="st10" d="M-53.4 1.6v15"/><path class="st5" d="M-53.4 17.1v.5"/></g><g class="st3"><path class="st4" d="M-45.2 8.8h-16.7"/><path class="st5" d="M-45.2 8.8h-.5"/><path class="st11" d="M-46.8 8.8h-14.1"/><path class="st5" d="M-61.4 8.8h-.5"/></g><path class="st2" d="M-78.6 36h33.4m-68.2.4V18h17.2v18.4"/><g class="st3"><path class="st4" d="M-104.8 18.5v17.9"/><path class="st5" d="M-104.8 18.5v.5"/><path class="st6" d="M-104.8 20v15.4"/><path class="st5" d="M-104.8 35.9v.5"/></g><g class="st3"><path class="st4" d="M-96.2 27.2h-17.2"/><path class="st5" d="M-96.2 27.2h-.5"/><path class="st7" d="M-97.7 27.2h-14.7"/><path class="st5" d="M-112.9 27.2h-.5"/></g><path class="st2" d="M-113.4 17.6V-.3h17.2v17.9"/><g class="st3"><path class="st4" d="M-104.8.2v17.4"/><path class="st5" d="M-104.8.2v.5"/><path class="st8" d="M-104.8 1.6v15"/><path class="st5" d="M-104.8 17.1v.5"/></g><g class="st3"><path class="st4" d="M-96.2 8.8h-17.2"/><path class="st5" d="M-96.2 8.8h-.5"/><path class="st7" d="M-97.7 8.8h-14.7"/><path class="st5" d="M-112.9 8.8h-.5"/></g><path class="st2" d="M-95.8 18h16.7v18.4"/><g class="st3"><path class="st4" d="M-87.7 18.5v17.9"/><path class="st5" d="M-87.7 18.5v.5"/><path class="st9" d="M-87.7 20v15.4"/><path class="st5" d="M-87.7 35.9v.5"/></g><g class="st3"><path class="st4" d="M-79.1 27.2h-17.1"/><path class="st5" d="M-79.1 27.2h-.5"/><path class="st7" d="M-80.5 27.2h-14.8"/><path class="st5" d="M-95.7 27.2h-.5"/></g><path class="st2" d="M-95.8-.3h16.7v17.9"/><g class="st3"><path class="st4" d="M-87.7.1v17.5"/><path class="st5" d="M-87.7.1v.5"/><path class="st10" d="M-87.7 1.6v15"/><path class="st5" d="M-87.7 17.1v.5"/></g><g class="st3"><path class="st4" d="M-79.5 8.8h-16.7"/><path class="st5" d="M-79.5 8.8h-.5"/><path class="st11" d="M-81.1 8.8h-14.1"/><path class="st5" d="M-95.7 8.8h-.5"/></g><path class="st2" d="M-112.9 36h33.4M-113.4.1v-18.4h17.2V.1"/><g class="st3"><path class="st4" d="M-104.8-17.8V.1"/><path class="st5" d="M-104.8-17.8v.5"/><path class="st6" d="M-104.8-16.3V-.9"/><path class="st5" d="M-104.8-.4v.5"/></g><g class="st3"><path class="st4" d="M-96.2-9.1h-17.2"/><path class="st5" d="M-96.2-9.1h-.5"/><path class="st7" d="M-97.7-9.1h-14.7"/><path class="st5" d="M-112.9-9.1h-.5"/></g><path class="st2" d="M-113.4-18.7v-17.9h17.2v17.9"/><g class="st3"><path class="st4" d="M-104.8-36.1v17.4"/><path class="st5" d="M-104.8-36.1v.5"/><path class="st8" d="M-104.8-34.7v15"/><path class="st5" d="M-104.8-19.2v.5"/></g><g class="st3"><path class="st4" d="M-96.2-27.5h-17.2"/><path class="st5" d="M-96.2-27.5h-.5"/><path class="st7" d="M-97.7-27.5h-14.7"/><path class="st5" d="M-112.9-27.5h-.5"/></g><path class="st2" d="M-95.8-18.3h16.7V.1"/><g class="st3"><path class="st4" d="M-87.7-17.8V.1"/><path class="st5" d="M-87.7-17.8v.5"/><path class="st9" d="M-87.7-16.3V-.9"/><path class="st5" d="M-87.7-.4v.5"/></g><g class="st3"><path class="st4" d="M-79.1-9.1h-17.1"/><path class="st5" d="M-79.1-9.1h-.5"/><path class="st7" d="M-80.5-9.1h-14.8"/><path class="st5" d="M-95.7-9.1h-.5"/></g><path class="st2" d="M-95.8-36.6h16.7v17.9"/><g class="st3"><path class="st4" d="M-87.7-36.2v17.5"/><path class="st5" d="M-87.7-36.2v.5"/><path class="st10" d="M-87.7-34.7v15"/><path class="st5" d="M-87.7-19.2v.5"/></g><g class="st3"><path class="st4" d="M-79.5-27.5h-16.7"/><path class="st5" d="M-79.5-27.5h-.5"/><path class="st11" d="M-81.1-27.5h-14.1"/><path class="st5" d="M-95.7-27.5h-.5"/></g><path class="st2" d="M-112.9-.3h33.4m69 .9v-18.4H6.7V.6"/><g class="st3"><path class="st4" d="M-1.9-17.3V.6"/><path class="st5" d="M-1.9-17.3v.5"/><path class="st6" d="M-1.9-15.8V-.4"/><path class="st5" d="M-1.9.1v.5"/></g><g class="st3"><path class="st4" d="M6.7-8.6h-17.2"/><path class="st5" d="M6.7-8.6h-.5"/><path class="st7" d="M5.2-8.6H-9.5"/><path class="st5" d="M-10-8.6h-.5"/></g><path class="st2" d="M-10.5-18.3v-17.9H6.7v17.9"/><g class="st3"><path class="st4" d="M-1.9-35.7v17.4"/><path class="st5" d="M-1.9-35.7v.5"/><path class="st8" d="M-1.9-34.2v15"/><path class="st5" d="M-1.9-18.8v.5"/></g><g class="st3"><path class="st4" d="M6.7-27h-17.2"/><path class="st5" d="M6.7-27h-.5"/><path class="st7" d="M5.2-27H-9.5"/><path class="st5" d="M-10-27h-.5"/></g><path class="st2" d="M7.1-17.8h16.7V.6"/><g class="st3"><path class="st4" d="M15.3-17.3V.6"/><path class="st5" d="M15.3-17.3v.5"/><path class="st9" d="M15.3-15.8V-.4"/><path class="st5" d="M15.3.1v.5"/></g><g class="st3"><path class="st4" d="M23.8-8.6H6.7"/><path class="st5" d="M23.8-8.6h-.5"/><path class="st7" d="M22.4-8.6H7.7"/><path class="st5" d="M7.2-8.6h-.5"/></g><path class="st2" d="M7.1-36.2h16.7v17.9"/><g class="st3"><path class="st4" d="M15.3-35.7v17.4"/><path class="st5" d="M15.3-35.7v.5"/><path class="st10" d="M15.3-34.3v15.1"/><path class="st5" d="M15.3-18.8v.5"/></g><g class="st3"><path class="st4" d="M23.4-27H6.7"/><path class="st5" d="M23.4-27h-.5"/><path class="st11" d="M21.8-27H7.7"/><path class="st5" d="M7.2-27h-.5"/></g><path class="st2" d="M-10 .1h33.4m-33.9 36.8V18.5H6.7v18.4"/><g class="st3"><path class="st4" d="M-1.9 19v17.9"/><path class="st5" d="M-1.9 19v.5"/><path class="st6" d="M-1.9 20.5v15.4"/><path class="st5" d="M-1.9 36.4v.5"/></g><g class="st3"><path class="st4" d="M6.7 27.7h-17.2"/><path class="st5" d="M6.7 27.7h-.5"/><path class="st7" d="M5.2 27.7H-9.5"/><path class="st5" d="M-10 27.7h-.5"/></g><path class="st2" d="M-10.5 18V.1H6.7V18"/><g class="st3"><path class="st4" d="M-1.9.6V18"/><path class="st5" d="M-1.9.6v.5"/><path class="st8" d="M-1.9 2.1v15"/><path class="st5" d="M-1.9 17.5v.5"/></g><g class="st3"><path class="st4" d="M6.7 9.3h-17.2"/><path class="st5" d="M6.7 9.3h-.5"/><path class="st7" d="M5.2 9.3H-9.5"/><path class="st5" d="M-10 9.3h-.5"/></g><path class="st2" d="M7.1 18.5h16.7v18.4"/><g class="st3"><path class="st4" d="M15.3 19v17.9"/><path class="st5" d="M15.3 19v.5"/><path class="st9" d="M15.3 20.5v15.4"/><path class="st5" d="M15.3 36.4v.5"/></g><g class="st3"><path class="st4" d="M23.8 27.7H6.7"/><path class="st5" d="M23.8 27.7h-.5"/><path class="st7" d="M22.4 27.7H7.7"/><path class="st5" d="M7.2 27.7h-.5"/></g><path class="st2" d="M7.1.1h16.7V18"/><g class="st3"><path class="st4" d="M15.3.6V18"/><path class="st5" d="M15.3.6v.5"/><path class="st10" d="M15.3 2v15.1"/><path class="st5" d="M15.3 17.5v.5"/></g><g class="st3"><path class="st4" d="M23.4 9.3H6.7"/><path class="st5" d="M23.4 9.3h-.5"/><path class="st11" d="M21.8 9.3H7.7"/><path class="st5" d="M7.2 9.3h-.5"/></g><path class="st2" d="M-10 36.4h33.4m-68.2.5V18.5h17.2v18.4"/><g class="st3"><path class="st4" d="M-36.2 19v17.9"/><path class="st5" d="M-36.2 19v.5"/><path class="st6" d="M-36.2 20.5v15.4"/><path class="st5" d="M-36.2 36.4v.5"/></g><g class="st3"><path class="st4" d="M-27.6 27.7h-17.2"/><path class="st5" d="M-27.6 27.7h-.5"/><path class="st7" d="M-29.1 27.7h-14.7"/><path class="st5" d="M-44.3 27.7h-.5"/></g><path class="st2" d="M-44.8 18V.1h17.2V18"/><g class="st3"><path class="st4" d="M-36.2.6V18"/><path class="st5" d="M-36.2.6v.5"/><path class="st8" d="M-36.2 2.1v15"/><path class="st5" d="M-36.2 17.5v.5"/></g><g class="st3"><path class="st4" d="M-27.6 9.3h-17.2"/><path class="st5" d="M-27.6 9.3h-.5"/><path class="st7" d="M-29.1 9.3h-14.7"/><path class="st5" d="M-44.3 9.3h-.5"/></g><path class="st2" d="M-27.2 18.5h16.7v18.4"/><g class="st3"><path class="st4" d="M-19 19v17.9"/><path class="st5" d="M-19 19v.5"/><path class="st9" d="M-19 20.5v15.4"/><path class="st5" d="M-19 36.4v.5"/></g><g class="st3"><path class="st4" d="M-10.5 27.7h-17.1"/><path class="st5" d="M-10.5 27.7h-.5"/><path class="st7" d="M-11.9 27.7h-14.8"/><path class="st5" d="M-27.1 27.7h-.5"/></g><path class="st2" d="M-27.2.1h16.7V18"/><g class="st3"><path class="st4" d="M-19 .6V18"/><path class="st5" d="M-19 .6v.5"/><path class="st10" d="M-19 2v15.1"/><path class="st5" d="M-19 17.5v.5"/></g><g class="st3"><path class="st4" d="M-10.9 9.3h-16.7"/><path class="st5" d="M-10.9 9.3h-.5"/><path class="st11" d="M-12.5 9.3h-14.1"/><path class="st5" d="M-27.1 9.3h-.5"/></g><path class="st2" d="M-44.3 36.4h33.4M-44.8.6v-18.4h17.2V.6"/><g class="st3"><path class="st4" d="M-36.2-17.3V.6"/><path class="st5" d="M-36.2-17.3v.5"/><path class="st6" d="M-36.2-15.8V-.4"/><path class="st5" d="M-36.2.1v.5"/></g><g class="st3"><path class="st4" d="M-27.6-8.6h-17.2"/><path class="st5" d="M-27.6-8.6h-.5"/><path class="st7" d="M-29.1-8.6h-14.7"/><path class="st5" d="M-44.3-8.6h-.5"/></g><path class="st2" d="M-44.8-18.3v-17.9h17.2v17.9"/><g class="st3"><path class="st4" d="M-36.2-35.7v17.4"/><path class="st5" d="M-36.2-35.7v.5"/><path class="st8" d="M-36.2-34.2v15"/><path class="st5" d="M-36.2-18.8v.5"/></g><g class="st3"><path class="st4" d="M-27.6-27h-17.2"/><path class="st5" d="M-27.6-27h-.5"/><path class="st7" d="M-29.1-27h-14.7"/><path class="st5" d="M-44.3-27h-.5"/></g><path class="st2" d="M-27.2-17.8h16.7V.6"/><g class="st3"><path class="st4" d="M-19-17.3V.6"/><path class="st5" d="M-19-17.3v.5"/><path class="st9" d="M-19-15.8V-.4"/><path class="st5" d="M-19 .1v.5"/></g><g class="st3"><path class="st4" d="M-10.5-8.6h-17.1"/><path class="st5" d="M-10.5-8.6h-.5"/><path class="st7" d="M-11.9-8.6h-14.8"/><path class="st5" d="M-27.1-8.6h-.5"/></g><path class="st2" d="M-27.2-36.2h16.7v17.9"/><g class="st3"><path class="st4" d="M-19-35.7v17.4"/><path class="st5" d="M-19-35.7v.5"/><path class="st10" d="M-19-34.3v15.1"/><path class="st5" d="M-19-18.8v.5"/></g><g class="st3"><path class="st4" d="M-10.9-27h-16.7"/><path class="st5" d="M-10.9-27h-.5"/><path class="st11" d="M-12.5-27h-14.1"/><path class="st5" d="M-27.1-27h-.5"/></g><path class="st2" d="M-44.3.1h33.4m69.1 73.1V54.8h17.1v18.4"/><g class="st3"><path class="st4" d="M66.7 55.3v17.9"/><path class="st5" d="M66.7 55.3v.5"/><path class="st6" d="M66.7 56.8v15.4"/><path class="st5" d="M66.7 72.7v.5"/></g><g class="st3"><path class="st4" d="M75.3 64H58.2"/><path class="st5" d="M75.3 64h-.5"/><path class="st7" d="M73.9 64H59.1"/><path class="st5" d="M58.7 64h-.5"/></g><path class="st2" d="M58.2 54.3V36.4h17.1v17.9"/><g class="st3"><path class="st4" d="M66.7 36.9v17.4"/><path class="st5" d="M66.7 36.9v.5"/><path class="st8" d="M66.7 38.4v15"/><path class="st5" d="M66.7 53.8v.5"/></g><g class="st3"><path class="st4" d="M75.3 45.6H58.2"/><path class="st5" d="M75.3 45.6h-.5"/><path class="st7" d="M73.9 45.6H59.1"/><path class="st5" d="M58.7 45.6h-.5"/></g><path class="st2" d="M75.7 54.8h16.8v18.4"/><g class="st3"><path class="st4" d="M83.9 55.3v17.9"/><path class="st5" d="M83.9 55.3v.5"/><path class="st9" d="M83.9 56.8v15.4"/><path class="st5" d="M83.9 72.7v.5"/></g><g class="st3"><path class="st4" d="M92.5 64H75.3"/><path class="st5" d="M92.5 64H92"/><path class="st7" d="M91 64H76.3"/><path class="st5" d="M75.8 64h-.5"/></g><path class="st2" d="M75.8 36.4h16.7v17.9"/><g class="st3"><path class="st4" d="M83.9 36.9v17.4"/><path class="st5" d="M83.9 36.9v.5"/><path class="st10" d="M83.9 38.3v15.1"/><path class="st5" d="M83.9 53.8v.5"/></g><g class="st3"><path class="st4" d="M92 45.6H75.3"/><path class="st5" d="M92 45.6h-.5"/><path class="st11" d="M90.5 45.6H76.3"/><path class="st5" d="M75.8 45.6h-.5"/></g><path class="st2" d="M58.6 72.7H92m-33.8 36.8V91.1h17.1v18.4"/><g class="st3"><path class="st4" d="M66.7 91.6v17.9"/><path class="st5" d="M66.7 91.6v.5"/><path class="st6" d="M66.7 93.1v15.4"/><path class="st5" d="M66.7 109v.5"/></g><g class="st3"><path class="st4" d="M75.3 100.3H58.2"/><path class="st5" d="M75.3 100.3h-.5"/><path class="st7" d="M73.9 100.3H59.1"/><path class="st5" d="M58.7 100.3h-.5"/></g><path class="st2" d="M58.2 90.6V72.7h17.1v17.9"/><g class="st3"><path class="st4" d="M66.7 73.2v17.4"/><path class="st5" d="M66.7 73.2v.5"/><path class="st8" d="M66.7 74.7v15"/><path class="st5" d="M66.7 90.1v.5"/></g><g class="st3"><path class="st4" d="M75.3 81.9H58.2"/><path class="st5" d="M75.3 81.9h-.5"/><path class="st7" d="M73.9 81.9H59.1"/><path class="st5" d="M58.7 81.9h-.5"/></g><path class="st2" d="M75.7 91.1h16.8v18.4"/><g class="st3"><path class="st4" d="M83.9 91.6v17.9"/><path class="st5" d="M83.9 91.6v.5"/><path class="st9" d="M83.9 93.1v15.4"/><path class="st5" d="M83.9 109v.5"/></g><g class="st3"><path class="st4" d="M92.5 100.3H75.3"/><path class="st5" d="M92.5 100.3H92"/><path class="st7" d="M91 100.3H76.3"/><path class="st5" d="M75.8 100.3h-.5"/></g><path class="st2" d="M75.8 72.7h16.7v17.9"/><g class="st3"><path class="st4" d="M83.9 73.2v17.4"/><path class="st5" d="M83.9 73.2v.5"/><path class="st10" d="M83.9 74.6v15.1"/><path class="st5" d="M83.9 90.1v.5"/></g><g class="st3"><path class="st4" d="M92 81.9H75.3"/><path class="st5" d="M92 81.9h-.5"/><path class="st11" d="M90.5 81.9H76.3"/><path class="st5" d="M75.8 81.9h-.5"/></g><path class="st2" d="M58.6 109H92m-68.2.5V91.1H41v18.4"/><g class="st3"><path class="st4" d="M32.4 91.6v17.9"/><path class="st5" d="M32.4 91.6v.5"/><path class="st6" d="M32.4 93.1v15.4"/><path class="st5" d="M32.4 109v.5"/></g><g class="st3"><path class="st4" d="M41 100.3H23.8"/><path class="st5" d="M41 100.3h-.5"/><path class="st7" d="M39.5 100.3H24.8"/><path class="st5" d="M24.3 100.3h-.5"/></g><path class="st2" d="M23.8 90.6V72.7H41v17.9"/><g class="st3"><path class="st4" d="M32.4 73.2v17.4"/><path class="st5" d="M32.4 73.2v.5"/><path class="st8" d="M32.4 74.7v15"/><path class="st5" d="M32.4 90.1v.5"/></g><g class="st3"><path class="st4" d="M41 81.9H23.8"/><path class="st5" d="M41 81.9h-.5"/><path class="st7" d="M39.5 81.9H24.8"/><path class="st5" d="M24.3 81.9h-.5"/></g><path class="st2" d="M41.4 91.1h16.8v18.4"/><g class="st3"><path class="st4" d="M49.6 91.6v17.9"/><path class="st5" d="M49.6 91.6v.5"/><path class="st9" d="M49.6 93.1v15.4"/><path class="st5" d="M49.6 109v.5"/></g><g class="st3"><path class="st4" d="M58.2 100.3H41"/><path class="st5" d="M58.2 100.3h-.5"/><path class="st7" d="M56.7 100.3H42"/><path class="st5" d="M41.5 100.3H41"/></g><path class="st2" d="M41.5 72.7h16.7v17.9"/><g class="st3"><path class="st4" d="M49.6 73.2v17.4"/><path class="st5" d="M49.6 73.2v.5"/><path class="st10" d="M49.6 74.6v15.1"/><path class="st5" d="M49.6 90.1v.5"/></g><g class="st3"><path class="st4" d="M57.7 81.9H41"/><path class="st5" d="M57.7 81.9h-.5"/><path class="st11" d="M56.2 81.9H42"/><path class="st5" d="M41.5 81.9H41"/></g><path class="st2" d="M24.3 109h33.4M23.8 73.2V54.8H41v18.4"/><g class="st3"><path class="st4" d="M32.4 55.3v17.9"/><path class="st5" d="M32.4 55.3v.5"/><path class="st6" d="M32.4 56.8v15.4"/><path class="st5" d="M32.4 72.7v.5"/></g><g class="st3"><path class="st4" d="M41 64H23.8"/><path class="st5" d="M41 64h-.5"/><path class="st7" d="M39.5 64H24.8"/><path class="st5" d="M24.3 64h-.5"/></g><path class="st2" d="M23.8 54.3V36.4H41v17.9"/><g class="st3"><path class="st4" d="M32.4 36.9v17.4"/><path class="st5" d="M32.4 36.9v.5"/><path class="st8" d="M32.4 38.4v15"/><path class="st5" d="M32.4 53.8v.5"/></g><g class="st3"><path class="st4" d="M41 45.6H23.8"/><path class="st5" d="M41 45.6h-.5"/><path class="st7" d="M39.5 45.6H24.8"/><path class="st5" d="M24.3 45.6h-.5"/></g><path class="st2" d="M41.4 54.8h16.8v18.4"/><g class="st3"><path class="st4" d="M49.6 55.3v17.9"/><path class="st5" d="M49.6 55.3v.5"/><path class="st9" d="M49.6 56.8v15.4"/><path class="st5" d="M49.6 72.7v.5"/></g><g class="st3"><path class="st4" d="M58.2 64H41"/><path class="st5" d="M58.2 64h-.5"/><path class="st7" d="M56.7 64H42"/><path class="st5" d="M41.5 64H41"/></g><path class="st2" d="M41.5 36.4h16.7v17.9"/><g class="st3"><path class="st4" d="M49.6 36.9v17.4"/><path class="st5" d="M49.6 36.9v.5"/><path class="st10" d="M49.6 38.3v15.1"/><path class="st5" d="M49.6 53.8v.5"/></g><g class="st3"><path class="st4" d="M57.7 45.6H41"/><path class="st5" d="M57.7 45.6h-.5"/><path class="st11" d="M56.2 45.6H42"/><path class="st5" d="M41.5 45.6H41"/></g><path class="st2" d="M24.3 72.7h33.4M58.2.6v-18.4h17.1V.6"/><g class="st3"><path class="st4" d="M66.7-17.3V.6"/><path class="st5" d="M66.7-17.3v.5"/><path class="st6" d="M66.7-15.8V-.4"/><path class="st5" d="M66.7.1v.5"/></g><g class="st3"><path class="st4" d="M75.3-8.6H58.2"/><path class="st5" d="M75.3-8.6h-.5"/><path class="st7" d="M73.9-8.6H59.1"/><path class="st5" d="M58.7-8.6h-.5"/></g><path class="st2" d="M58.2-18.3v-17.9h17.1v17.9"/><g class="st3"><path class="st4" d="M66.7-35.7v17.4"/><path class="st5" d="M66.7-35.7v.5"/><path class="st8" d="M66.7-34.2v15"/><path class="st5" d="M66.7-18.8v.5"/></g><g class="st3"><path class="st4" d="M75.3-27H58.2"/><path class="st5" d="M75.3-27h-.5"/><path class="st7" d="M73.9-27H59.1"/><path class="st5" d="M58.7-27h-.5"/></g><path class="st2" d="M75.7-17.8h16.8V.6"/><g class="st3"><path class="st4" d="M83.9-17.3V.6"/><path class="st5" d="M83.9-17.3v.5"/><path class="st9" d="M83.9-15.8V-.4"/><path class="st5" d="M83.9.1v.5"/></g><g class="st3"><path class="st4" d="M92.5-8.6H75.3"/><path class="st5" d="M92.5-8.6H92"/><path class="st7" d="M91-8.6H76.3"/><path class="st5" d="M75.8-8.6h-.5"/></g><path class="st2" d="M75.8-36.2h16.7v17.9"/><g class="st3"><path class="st4" d="M83.9-35.7v17.4"/><path class="st5" d="M83.9-35.7v.5"/><path class="st10" d="M83.9-34.3v15.1"/><path class="st5" d="M83.9-18.8v.5"/></g><g class="st3"><path class="st4" d="M92-27H75.3"/><path class="st5" d="M92-27h-.5"/><path class="st11" d="M90.5-27H76.3"/><path class="st5" d="M75.8-27h-.5"/></g><path class="st2" d="M58.6.1H92M58.2 36.9V18.5h17.1v18.4"/><g class="st3"><path class="st4" d="M66.7 19v17.9"/><path class="st5" d="M66.7 19v.5"/><path class="st6" d="M66.7 20.5v15.4"/><path class="st5" d="M66.7 36.4v.5"/></g><g class="st3"><path class="st4" d="M75.3 27.7H58.2"/><path class="st5" d="M75.3 27.7h-.5"/><path class="st7" d="M73.9 27.7H59.1"/><path class="st5" d="M58.7 27.7h-.5"/></g><path class="st2" d="M58.2 18V.1h17.1V18"/><g class="st3"><path class="st4" d="M66.7.6V18"/><path class="st5" d="M66.7.6v.5"/><path class="st8" d="M66.7 2.1v15"/><path class="st5" d="M66.7 17.5v.5"/></g><g class="st3"><path class="st4" d="M75.3 9.3H58.2"/><path class="st5" d="M75.3 9.3h-.5"/><path class="st7" d="M73.9 9.3H59.1"/><path class="st5" d="M58.7 9.3h-.5"/></g><path class="st2" d="M75.7 18.5h16.8v18.4"/><g class="st3"><path class="st4" d="M83.9 19v17.9"/><path class="st5" d="M83.9 19v.5"/><path class="st9" d="M83.9 20.5v15.4"/><path class="st5" d="M83.9 36.4v.5"/></g><g class="st3"><path class="st4" d="M92.5 27.7H75.3"/><path class="st5" d="M92.5 27.7H92"/><path class="st7" d="M91 27.7H76.3"/><path class="st5" d="M75.8 27.7h-.5"/></g><path class="st2" d="M75.8.1h16.7V18"/><g class="st3"><path class="st4" d="M83.9.6V18"/><path class="st5" d="M83.9.6v.5"/><path class="st10" d="M83.9 2v15.1"/><path class="st5" d="M83.9 17.5v.5"/></g><g class="st3"><path class="st4" d="M92 9.3H75.3"/><path class="st5" d="M92 9.3h-.5"/><path class="st11" d="M90.5 9.3H76.3"/><path class="st5" d="M75.8 9.3h-.5"/></g><path class="st2" d="M58.6 36.4H92m-68.2.5V18.5H41v18.4"/><g class="st3"><path class="st4" d="M32.4 19v17.9"/><path class="st5" d="M32.4 19v.5"/><path class="st6" d="M32.4 20.5v15.4"/><path class="st5" d="M32.4 36.4v.5"/></g><g class="st3"><path class="st4" d="M41 27.7H23.8"/><path class="st5" d="M41 27.7h-.5"/><path class="st7" d="M39.5 27.7H24.8"/><path class="st5" d="M24.3 27.7h-.5"/></g><path class="st2" d="M23.8 18V.1H41V18"/><g class="st3"><path class="st4" d="M32.4.6V18"/><path class="st5" d="M32.4.6v.5"/><path class="st8" d="M32.4 2.1v15"/><path class="st5" d="M32.4 17.5v.5"/></g><g class="st3"><path class="st4" d="M41 9.3H23.8"/><path class="st5" d="M41 9.3h-.5"/><path class="st7" d="M39.5 9.3H24.8"/><path class="st5" d="M24.3 9.3h-.5"/></g><path class="st2" d="M41.4 18.5h16.8v18.4"/><g class="st3"><path class="st4" d="M49.6 19v17.9"/><path class="st5" d="M49.6 19v.5"/><path class="st9" d="M49.6 20.5v15.4"/><path class="st5" d="M49.6 36.4v.5"/></g><g class="st3"><path class="st4" d="M58.2 27.7H41"/><path class="st5" d="M58.2 27.7h-.5"/><path class="st7" d="M56.7 27.7H42"/><path class="st5" d="M41.5 27.7H41"/></g><path class="st2" d="M41.5.1h16.7V18"/><g class="st3"><path class="st4" d="M49.6.6V18"/><path class="st5" d="M49.6.6v.5"/><path class="st10" d="M49.6 2v15.1"/><path class="st5" d="M49.6 17.5v.5"/></g><g class="st3"><path class="st4" d="M57.7 9.3H41"/><path class="st5" d="M57.7 9.3h-.5"/><path class="st11" d="M56.2 9.3H42"/><path class="st5" d="M41.5 9.3H41"/></g><path class="st2" d="M24.3 36.4h33.4M23.8.6v-18.4H41V.6"/><g class="st3"><path class="st4" d="M32.4-17.3V.6"/><path class="st5" d="M32.4-17.3v.5"/><path class="st6" d="M32.4-15.8V-.4"/><path class="st5" d="M32.4.1v.5"/></g><g class="st3"><path class="st4" d="M41-8.6H23.8"/><path class="st5" d="M41-8.6h-.5"/><path class="st7" d="M39.5-8.6H24.8"/><path class="st5" d="M24.3-8.6h-.5"/></g><path class="st2" d="M23.8-18.3v-17.9H41v17.9"/><g class="st3"><path class="st4" d="M32.4-35.7v17.4"/><path class="st5" d="M32.4-35.7v.5"/><path class="st8" d="M32.4-34.2v15"/><path class="st5" d="M32.4-18.8v.5"/></g><g class="st3"><path class="st4" d="M41-27H23.8"/><path class="st5" d="M41-27h-.5"/><path class="st7" d="M39.5-27H24.8"/><path class="st5" d="M24.3-27h-.5"/></g><path class="st2" d="M41.4-17.8h16.8V.6"/><g class="st3"><path class="st4" d="M49.6-17.3V.6"/><path class="st5" d="M49.6-17.3v.5"/><path class="st9" d="M49.6-15.8V-.4"/><path class="st5" d="M49.6.1v.5"/></g><g class="st3"><path class="st4" d="M58.2-8.6H41"/><path class="st5" d="M58.2-8.6h-.5"/><path class="st7" d="M56.7-8.6H42"/><path class="st5" d="M41.5-8.6H41"/></g><path class="st2" d="M41.5-36.2h16.7v17.9"/><g class="st3"><path class="st4" d="M49.6-35.7v17.4"/><path class="st5" d="M49.6-35.7v.5"/><path class="st10" d="M49.6-34.3v15.1"/><path class="st5" d="M49.6-18.8v.5"/></g><g class="st3"><path class="st4" d="M57.7-27H41"/><path class="st5" d="M57.7-27h-.5"/><path class="st11" d="M56.2-27H42"/><path class="st5" d="M41.5-27H41"/></g><path class="st2" d="M24.3.1h33.4m69.1 73.1V54.8h17.1v18.4"/><g class="st3"><path class="st4" d="M135.4 55.3v17.9"/><path class="st5" d="M135.4 55.3v.5"/><path class="st6" d="M135.4 56.8v15.4"/><path class="st5" d="M135.4 72.7v.5"/></g><g class="st3"><path class="st4" d="M143.9 64h-17.1"/><path class="st5" d="M143.9 64h-.5"/><path class="st7" d="M142.5 64h-14.7"/><path class="st5" d="M127.3 64h-.5"/></g><path class="st2" d="M126.8 54.3V36.4h17.1v17.9"/><g class="st3"><path class="st4" d="M135.4 36.9v17.4"/><path class="st5" d="M135.4 36.9v.5"/><path class="st8" d="M135.4 38.4v15"/><path class="st5" d="M135.4 53.8v.5"/></g><g class="st3"><path class="st4" d="M143.9 45.6h-17.1"/><path class="st5" d="M143.9 45.6h-.5"/><path class="st7" d="M142.5 45.6h-14.7"/><path class="st5" d="M127.3 45.6h-.5"/></g><path class="st2" d="M144.4 54.8h16.7v18.4"/><g class="st3"><path class="st4" d="M152.5 55.3v17.9"/><path class="st5" d="M152.5 55.3v.5"/><path class="st9" d="M152.5 56.8v15.4"/><path class="st5" d="M152.5 72.7v.5"/></g><g class="st3"><path class="st4" d="M161.1 64h-17.2"/><path class="st5" d="M161.1 64h-.5"/><path class="st7" d="M159.6 64h-14.7"/><path class="st5" d="M144.4 64h-.5"/></g><path class="st2" d="M144.4 36.4h16.7v17.9"/><g class="st3"><path class="st4" d="M152.5 36.9v17.4"/><path class="st5" d="M152.5 36.9v.5"/><path class="st10" d="M152.5 38.3v15.1"/><path class="st5" d="M152.5 53.8v.5"/></g><g class="st3"><path class="st4" d="M160.6 45.6h-16.7"/><path class="st5" d="M160.6 45.6h-.5"/><path class="st11" d="M159.1 45.6H145"/><path class="st5" d="M144.4 45.6h-.5"/></g><path class="st2" d="M127.2 72.7h33.5m-33.9 36.8V91.1h17.1v18.4"/><g class="st3"><path class="st4" d="M135.4 91.6v17.9"/><path class="st5" d="M135.4 91.6v.5"/><path class="st6" d="M135.4 93.1v15.4"/><path class="st5" d="M135.4 109v.5"/></g><g class="st3"><path class="st4" d="M143.9 100.3h-17.1"/><path class="st5" d="M143.9 100.3h-.5"/><path class="st7" d="M142.5 100.3h-14.7"/><path class="st5" d="M127.3 100.3h-.5"/></g><path class="st2" d="M126.8 90.6V72.7h17.1v17.9"/><g class="st3"><path class="st4" d="M135.4 73.2v17.4"/><path class="st5" d="M135.4 73.2v.5"/><path class="st8" d="M135.4 74.7v15"/><path class="st5" d="M135.4 90.1v.5"/></g><g class="st3"><path class="st4" d="M143.9 81.9h-17.1"/><path class="st5" d="M143.9 81.9h-.5"/><path class="st7" d="M142.5 81.9h-14.7"/><path class="st5" d="M127.3 81.9h-.5"/></g><path class="st2" d="M144.4 91.1h16.7v18.4"/><g class="st3"><path class="st4" d="M152.5 91.6v17.9"/><path class="st5" d="M152.5 91.6v.5"/><path class="st9" d="M152.5 93.1v15.4"/><path class="st5" d="M152.5 109v.5"/></g><g class="st3"><path class="st4" d="M161.1 100.3h-17.2"/><path class="st5" d="M161.1 100.3h-.5"/><path class="st7" d="M159.6 100.3h-14.7"/><path class="st5" d="M144.4 100.3h-.5"/></g><path class="st2" d="M144.4 72.7h16.7v17.9"/><g class="st3"><path class="st4" d="M152.5 73.2v17.4"/><path class="st5" d="M152.5 73.2v.5"/><path class="st10" d="M152.5 74.6v15.1"/><path class="st5" d="M152.5 90.1v.5"/></g><g class="st3"><path class="st4" d="M160.6 81.9h-16.7"/><path class="st5" d="M160.6 81.9h-.5"/><path class="st11" d="M159.1 81.9H145"/><path class="st5" d="M144.4 81.9h-.5"/></g><path class="st2" d="M127.2 109h33.5m-68.2.5V91.1h17.1v18.4"/><g class="st3"><path class="st4" d="M101 91.6v17.9"/><path class="st5" d="M101 91.6v.5"/><path class="st6" d="M101 93.1v15.4"/><path class="st5" d="M101 109v.5"/></g><g class="st3"><path class="st4" d="M109.6 100.3H92.5"/><path class="st5" d="M109.6 100.3h-.5"/><path class="st7" d="M108.2 100.3H93.4"/><path class="st5" d="M93 100.3h-.5"/></g><path class="st2" d="M92.5 90.6V72.7h17.1v17.9"/><g class="st3"><path class="st4" d="M101 73.2v17.4"/><path class="st5" d="M101 73.2v.5"/><path class="st8" d="M101 74.7v15"/><path class="st5" d="M101 90.1v.5"/></g><g class="st3"><path class="st4" d="M109.6 81.9H92.5"/><path class="st5" d="M109.6 81.9h-.5"/><path class="st7" d="M108.2 81.9H93.4"/><path class="st5" d="M93 81.9h-.5"/></g><path class="st2" d="M110.1 91.1h16.7v18.4"/><g class="st3"><path class="st4" d="M118.2 91.6v17.9"/><path class="st5" d="M118.2 91.6v.5"/><path class="st9" d="M118.2 93.1v15.4"/><path class="st5" d="M118.2 109v.5"/></g><g class="st3"><path class="st4" d="M126.8 100.3h-17.2"/><path class="st5" d="M126.8 100.3h-.5"/><path class="st7" d="M125.3 100.3h-14.7"/><path class="st5" d="M110.1 100.3h-.5"/></g><path class="st2" d="M110.1 72.7h16.7v17.9"/><g class="st3"><path class="st4" d="M118.2 73.2v17.4"/><path class="st5" d="M118.2 73.2v.5"/><path class="st10" d="M118.2 74.6v15.1"/><path class="st5" d="M118.2 90.1v.5"/></g><g class="st3"><path class="st4" d="M126.3 81.9h-16.7"/><path class="st5" d="M126.3 81.9h-.5"/><path class="st11" d="M124.8 81.9h-14.2"/><path class="st5" d="M110.1 81.9h-.5"/></g><path class="st2" d="M92.9 109h33.4M92.5 73.2V54.8h17.1v18.4"/><g class="st3"><path class="st4" d="M101 55.3v17.9"/><path class="st5" d="M101 55.3v.5"/><path class="st6" d="M101 56.8v15.4"/><path class="st5" d="M101 72.7v.5"/></g><g class="st3"><path class="st4" d="M109.6 64H92.5"/><path class="st5" d="M109.6 64h-.5"/><path class="st7" d="M108.2 64H93.4"/><path class="st5" d="M93 64h-.5"/></g><path class="st2" d="M92.5 54.3V36.4h17.1v17.9"/><g class="st3"><path class="st4" d="M101 36.9v17.4"/><path class="st5" d="M101 36.9v.5"/><path class="st8" d="M101 38.4v15"/><path class="st5" d="M101 53.8v.5"/></g><g class="st3"><path class="st4" d="M109.6 45.6H92.5"/><path class="st5" d="M109.6 45.6h-.5"/><path class="st7" d="M108.2 45.6H93.4"/><path class="st5" d="M93 45.6h-.5"/></g><path class="st2" d="M110.1 54.8h16.7v18.4"/><g class="st3"><path class="st4" d="M118.2 55.3v17.9"/><path class="st5" d="M118.2 55.3v.5"/><path class="st9" d="M118.2 56.8v15.4"/><path class="st5" d="M118.2 72.7v.5"/></g><g class="st3"><path class="st4" d="M126.8 64h-17.2"/><path class="st5" d="M126.8 64h-.5"/><path class="st7" d="M125.3 64h-14.7"/><path class="st5" d="M110.1 64h-.5"/></g><path class="st2" d="M110.1 36.4h16.7v17.9"/><g class="st3"><path class="st4" d="M118.2 36.9v17.4"/><path class="st5" d="M118.2 36.9v.5"/><path class="st10" d="M118.2 38.3v15.1"/><path class="st5" d="M118.2 53.8v.5"/></g><g class="st3"><path class="st4" d="M126.3 45.6h-16.7"/><path class="st5" d="M126.3 45.6h-.5"/><path class="st11" d="M124.8 45.6h-14.2"/><path class="st5" d="M110.1 45.6h-.5"/></g><path class="st2" d="M92.9 72.7h33.4m.5-72.1v-18.4h17.1V.6"/><g class="st3"><path class="st4" d="M135.4-17.3V.6"/><path class="st5" d="M135.4-17.3v.5"/><path class="st6" d="M135.4-15.8V-.4"/><path class="st5" d="M135.4.1v.5"/></g><g class="st3"><path class="st4" d="M143.9-8.6h-17.1"/><path class="st5" d="M143.9-8.6h-.5"/><path class="st7" d="M142.5-8.6h-14.7"/><path class="st5" d="M127.3-8.6h-.5"/></g><path class="st2" d="M126.8-18.3v-17.9h17.1v17.9"/><g class="st3"><path class="st4" d="M135.4-35.7v17.4"/><path class="st5" d="M135.4-35.7v.5"/><path class="st8" d="M135.4-34.2v15"/><path class="st5" d="M135.4-18.8v.5"/></g><g class="st3"><path class="st4" d="M143.9-27h-17.1"/><path class="st5" d="M143.9-27h-.5"/><path class="st7" d="M142.5-27h-14.7"/><path class="st5" d="M127.3-27h-.5"/></g><path class="st2" d="M144.4-17.8h16.7V.6"/><g class="st3"><path class="st4" d="M152.5-17.3V.6"/><path class="st5" d="M152.5-17.3v.5"/><path class="st9" d="M152.5-15.8V-.4"/><path class="st5" d="M152.5.1v.5"/></g><g class="st3"><path class="st4" d="M161.1-8.6h-17.2"/><path class="st5" d="M161.1-8.6h-.5"/><path class="st7" d="M159.6-8.6h-14.7"/><path class="st5" d="M144.4-8.6h-.5"/></g><path class="st2" d="M144.4-36.2h16.7v17.9"/><g class="st3"><path class="st4" d="M152.5-35.7v17.4"/><path class="st5" d="M152.5-35.7v.5"/><path class="st10" d="M152.5-34.3v15.1"/><path class="st5" d="M152.5-18.8v.5"/></g><g class="st3"><path class="st4" d="M160.6-27h-16.7"/><path class="st5" d="M160.6-27h-.5"/><path class="st11" d="M159.1-27H145"/><path class="st5" d="M144.4-27h-.5"/></g><path class="st2" d="M127.2.1h33.5m-33.9 36.8V18.5h17.1v18.4"/><g class="st3"><path class="st4" d="M135.4 19v17.9"/><path class="st5" d="M135.4 19v.5"/><path class="st6" d="M135.4 20.5v15.4"/><path class="st5" d="M135.4 36.4v.5"/></g><g class="st3"><path class="st4" d="M143.9 27.7h-17.1"/><path class="st5" d="M143.9 27.7h-.5"/><path class="st7" d="M142.5 27.7h-14.7"/><path class="st5" d="M127.3 27.7h-.5"/></g><path class="st2" d="M126.8 18V.1h17.1V18"/><g class="st3"><path class="st4" d="M135.4.6V18"/><path class="st5" d="M135.4.6v.5"/><path class="st8" d="M135.4 2.1v15"/><path class="st5" d="M135.4 17.5v.5"/></g><g class="st3"><path class="st4" d="M143.9 9.3h-17.1"/><path class="st5" d="M143.9 9.3h-.5"/><path class="st7" d="M142.5 9.3h-14.7"/><path class="st5" d="M127.3 9.3h-.5"/></g><path class="st2" d="M144.4 18.5h16.7v18.4"/><g class="st3"><path class="st4" d="M152.5 19v17.9"/><path class="st5" d="M152.5 19v.5"/><path class="st9" d="M152.5 20.5v15.4"/><path class="st5" d="M152.5 36.4v.5"/></g><g class="st3"><path class="st4" d="M161.1 27.7h-17.2"/><path class="st5" d="M161.1 27.7h-.5"/><path class="st7" d="M159.6 27.7h-14.7"/><path class="st5" d="M144.4 27.7h-.5"/></g><path class="st2" d="M144.4.1h16.7V18"/><g class="st3"><path class="st4" d="M152.5.6V18"/><path class="st5" d="M152.5.6v.5"/><path class="st10" d="M152.5 2v15.1"/><path class="st5" d="M152.5 17.5v.5"/></g><g class="st3"><path class="st4" d="M160.6 9.3h-16.7"/><path class="st5" d="M160.6 9.3h-.5"/><path class="st11" d="M159.1 9.3H145"/><path class="st5" d="M144.4 9.3h-.5"/></g><path class="st2" d="M127.2 36.4h33.5m-68.2.5V18.5h17.1v18.4"/><g class="st3"><path class="st4" d="M101 19v17.9"/><path class="st5" d="M101 19v.5"/><path class="st6" d="M101 20.5v15.4"/><path class="st5" d="M101 36.4v.5"/></g><g class="st3"><path class="st4" d="M109.6 27.7H92.5"/><path class="st5" d="M109.6 27.7h-.5"/><path class="st7" d="M108.2 27.7H93.4"/><path class="st5" d="M93 27.7h-.5"/></g><path class="st2" d="M92.5 18V.1h17.1V18"/><g class="st3"><path class="st4" d="M101 .6V18"/><path class="st5" d="M101 .6v.5"/><path class="st8" d="M101 2.1v15"/><path class="st5" d="M101 17.5v.5"/></g><g class="st3"><path class="st4" d="M109.6 9.3H92.5"/><path class="st5" d="M109.6 9.3h-.5"/><path class="st7" d="M108.2 9.3H93.4"/><path class="st5" d="M93 9.3h-.5"/></g><path class="st2" d="M110.1 18.5h16.7v18.4"/><g class="st3"><path class="st4" d="M118.2 19v17.9"/><path class="st5" d="M118.2 19v.5"/><path class="st9" d="M118.2 20.5v15.4"/><path class="st5" d="M118.2 36.4v.5"/></g><g class="st3"><path class="st4" d="M126.8 27.7h-17.2"/><path class="st5" d="M126.8 27.7h-.5"/><path class="st7" d="M125.3 27.7h-14.7"/><path class="st5" d="M110.1 27.7h-.5"/></g><path class="st2" d="M110.1.1h16.7V18"/><g class="st3"><path class="st4" d="M118.2.6V18"/><path class="st5" d="M118.2.6v.5"/><path class="st10" d="M118.2 2v15.1"/><path class="st5" d="M118.2 17.5v.5"/></g><g class="st3"><path class="st4" d="M126.3 9.3h-16.7"/><path class="st5" d="M126.3 9.3h-.5"/><path class="st11" d="M124.8 9.3h-14.2"/><path class="st5" d="M110.1 9.3h-.5"/></g><path class="st2" d="M92.9 36.4h33.4M92.5.6v-18.4h17.1V.6"/><g class="st3"><path class="st4" d="M101-17.3V.6"/><path class="st5" d="M101-17.3v.5"/><path class="st6" d="M101-15.8V-.4"/><path class="st5" d="M101 .1v.5"/></g><g class="st3"><path class="st4" d="M109.6-8.6H92.5"/><path class="st5" d="M109.6-8.6h-.5"/><path class="st7" d="M108.2-8.6H93.4"/><path class="st5" d="M93-8.6h-.5"/></g><path class="st2" d="M92.5-18.3v-17.9h17.1v17.9"/><g class="st3"><path class="st4" d="M101-35.7v17.4"/><path class="st5" d="M101-35.7v.5"/><path class="st8" d="M101-34.2v15"/><path class="st5" d="M101-18.8v.5"/></g><g class="st3"><path class="st4" d="M109.6-27H92.5"/><path class="st5" d="M109.6-27h-.5"/><path class="st7" d="M108.2-27H93.4"/><path class="st5" d="M93-27h-.5"/></g><path class="st2" d="M110.1-17.8h16.7V.6"/><g class="st3"><path class="st4" d="M118.2-17.3V.6"/><path class="st5" d="M118.2-17.3v.5"/><path class="st9" d="M118.2-15.8V-.4"/><path class="st5" d="M118.2.1v.5"/></g><g class="st3"><path class="st4" d="M126.8-8.6h-17.2"/><path class="st5" d="M126.8-8.6h-.5"/><path class="st7" d="M125.3-8.6h-14.7"/><path class="st5" d="M110.1-8.6h-.5"/></g><path class="st2" d="M110.1-36.2h16.7v17.9"/><g class="st3"><path class="st4" d="M118.2-35.7v17.4"/><path class="st5" d="M118.2-35.7v.5"/><path class="st10" d="M118.2-34.3v15.1"/><path class="st5" d="M118.2-18.8v.5"/></g><g class="st3"><path class="st4" d="M126.3-27h-16.7"/><path class="st5" d="M126.3-27h-.5"/><path class="st11" d="M124.8-27h-14.2"/><path class="st5" d="M110.1-27h-.5"/></g><path class="st2" d="M92.9.1h33.4m69.1 73.1V54.8h17.1v18.4"/><g class="st3"><path class="st4" d="M204 55.3v17.9"/><path class="st5" d="M204 55.3v.5"/><path class="st6" d="M204 56.8v15.4"/><path class="st5" d="M204 72.7v.5"/></g><g class="st3"><path class="st4" d="M212.5 64h-17.1"/><path class="st5" d="M212.5 64h-.5"/><path class="st7" d="M211.1 64h-14.7"/><path class="st5" d="M195.9 64h-.5"/></g><path class="st2" d="M195.4 54.3V36.4h17.1v17.9"/><g class="st3"><path class="st4" d="M204 36.9v17.4"/><path class="st5" d="M204 36.9v.5"/><path class="st8" d="M204 38.4v15"/><path class="st5" d="M204 53.8v.5"/></g><g class="st3"><path class="st4" d="M212.5 45.6h-17.1"/><path class="st5" d="M212.5 45.6h-.5"/><path class="st7" d="M211.1 45.6h-14.7"/><path class="st5" d="M195.9 45.6h-.5"/></g><path class="st2" d="M213 54.8h16.7v18.4"/><g class="st3"><path class="st4" d="M221.1 55.3v17.9"/><path class="st5" d="M221.1 55.3v.5"/><path class="st9" d="M221.1 56.8v15.4"/><path class="st5" d="M221.1 72.7v.5"/></g><g class="st3"><path class="st4" d="M229.7 64h-17.2"/><path class="st5" d="M229.7 64h-.5"/><path class="st7" d="M228.3 64h-14.8"/><path class="st5" d="M213 64h-.5"/></g><path class="st2" d="M213 36.4h16.7v17.9"/><g class="st3"><path class="st4" d="M221.1 36.9v17.4"/><path class="st5" d="M221.1 36.9v.5"/><path class="st10" d="M221.1 38.3v15.1"/><path class="st5" d="M221.1 53.8v.5"/></g><g class="st3"><path class="st4" d="M229.3 45.6h-16.8"/><path class="st5" d="M229.3 45.6h-.5"/><path class="st11" d="M227.7 45.6h-14.1"/><path class="st5" d="M213 45.6h-.5"/></g><path class="st2" d="M195.8 72.7h33.5m-33.9 36.8V91.1h17.1v18.4"/><g class="st3"><path class="st4" d="M204 91.6v17.9"/><path class="st5" d="M204 91.6v.5"/><path class="st6" d="M204 93.1v15.4"/><path class="st5" d="M204 109v.5"/></g><g class="st3"><path class="st4" d="M212.5 100.3h-17.1"/><path class="st5" d="M212.5 100.3h-.5"/><path class="st7" d="M211.1 100.3h-14.7"/><path class="st5" d="M195.9 100.3h-.5"/></g><path class="st2" d="M195.4 90.6V72.7h17.1v17.9"/><g class="st3"><path class="st4" d="M204 73.2v17.4"/><path class="st5" d="M204 73.2v.5"/><path class="st8" d="M204 74.7v15"/><path class="st5" d="M204 90.1v.5"/></g><g class="st3"><path class="st4" d="M212.5 81.9h-17.1"/><path class="st5" d="M212.5 81.9h-.5"/><path class="st7" d="M211.1 81.9h-14.7"/><path class="st5" d="M195.9 81.9h-.5"/></g><path class="st2" d="M213 91.1h16.7v18.4"/><g class="st3"><path class="st4" d="M221.1 91.6v17.9"/><path class="st5" d="M221.1 91.6v.5"/><path class="st9" d="M221.1 93.1v15.4"/><path class="st5" d="M221.1 109v.5"/></g><g class="st3"><path class="st4" d="M229.7 100.3h-17.2"/><path class="st5" d="M229.7 100.3h-.5"/><path class="st7" d="M228.3 100.3h-14.8"/><path class="st5" d="M213 100.3h-.5"/></g><path class="st2" d="M213 72.7h16.7v17.9"/><g class="st3"><path class="st4" d="M221.1 73.2v17.4"/><path class="st5" d="M221.1 73.2v.5"/><path class="st10" d="M221.1 74.6v15.1"/><path class="st5" d="M221.1 90.1v.5"/></g><g class="st3"><path class="st4" d="M229.3 81.9h-16.8"/><path class="st5" d="M229.3 81.9h-.5"/><path class="st11" d="M227.7 81.9h-14.1"/><path class="st5" d="M213 81.9h-.5"/></g><path class="st2" d="M195.8 109h33.5m-68.2.5V91.1h17.1v18.4"/><g class="st3"><path class="st4" d="M169.7 91.6v17.9"/><path class="st5" d="M169.7 91.6v.5"/><path class="st6" d="M169.7 93.1v15.4"/><path class="st5" d="M169.7 109v.5"/></g><g class="st3"><path class="st4" d="M178.2 100.3h-17.1"/><path class="st5" d="M178.2 100.3h-.5"/><path class="st7" d="M176.8 100.3h-14.7"/><path class="st5" d="M161.6 100.3h-.5"/></g><path class="st2" d="M161.1 90.6V72.7h17.1v17.9"/><g class="st3"><path class="st4" d="M169.7 73.2v17.4"/><path class="st5" d="M169.7 73.2v.5"/><path class="st8" d="M169.7 74.7v15"/><path class="st5" d="M169.7 90.1v.5"/></g><g class="st3"><path class="st4" d="M178.2 81.9h-17.1"/><path class="st5" d="M178.2 81.9h-.5"/><path class="st7" d="M176.8 81.9h-14.7"/><path class="st5" d="M161.6 81.9h-.5"/></g><path class="st2" d="M178.7 91.1h16.7v18.4"/><g class="st3"><path class="st4" d="M186.8 91.6v17.9"/><path class="st5" d="M186.8 91.6v.5"/><path class="st9" d="M186.8 93.1v15.4"/><path class="st5" d="M186.8 109v.5"/></g><g class="st3"><path class="st4" d="M195.4 100.3h-17.2"/><path class="st5" d="M195.4 100.3h-.5"/><path class="st7" d="M193.9 100.3h-14.7"/><path class="st5" d="M178.7 100.3h-.5"/></g><path class="st2" d="M178.7 72.7h16.7v17.9"/><g class="st3"><path class="st4" d="M186.8 73.2v17.4"/><path class="st5" d="M186.8 73.2v.5"/><path class="st10" d="M186.8 74.6v15.1"/><path class="st5" d="M186.8 90.1v.5"/></g><g class="st3"><path class="st4" d="M194.9 81.9h-16.7"/><path class="st5" d="M194.9 81.9h-.5"/><path class="st11" d="M193.4 81.9h-14.1"/><path class="st5" d="M178.7 81.9h-.5"/></g><path class="st2" d="M161.5 109H195m-33.9-35.8V54.8h17.1v18.4"/><g class="st3"><path class="st4" d="M169.7 55.3v17.9"/><path class="st5" d="M169.7 55.3v.5"/><path class="st6" d="M169.7 56.8v15.4"/><path class="st5" d="M169.7 72.7v.5"/></g><g class="st3"><path class="st4" d="M178.2 64h-17.1"/><path class="st5" d="M178.2 64h-.5"/><path class="st7" d="M176.8 64h-14.7"/><path class="st5" d="M161.6 64h-.5"/></g><path class="st2" d="M161.1 54.3V36.4h17.1v17.9"/><g class="st3"><path class="st4" d="M169.7 36.9v17.4"/><path class="st5" d="M169.7 36.9v.5"/><path class="st8" d="M169.7 38.4v15"/><path class="st5" d="M169.7 53.8v.5"/></g><g class="st3"><path class="st4" d="M178.2 45.6h-17.1"/><path class="st5" d="M178.2 45.6h-.5"/><path class="st7" d="M176.8 45.6h-14.7"/><path class="st5" d="M161.6 45.6h-.5"/></g><path class="st2" d="M178.7 54.8h16.7v18.4"/><g class="st3"><path class="st4" d="M186.8 55.3v17.9"/><path class="st5" d="M186.8 55.3v.5"/><path class="st9" d="M186.8 56.8v15.4"/><path class="st5" d="M186.8 72.7v.5"/></g><g class="st3"><path class="st4" d="M195.4 64h-17.2"/><path class="st5" d="M195.4 64h-.5"/><path class="st7" d="M193.9 64h-14.7"/><path class="st5" d="M178.7 64h-.5"/></g><path class="st2" d="M178.7 36.4h16.7v17.9"/><g class="st3"><path class="st4" d="M186.8 36.9v17.4"/><path class="st5" d="M186.8 36.9v.5"/><path class="st10" d="M186.8 38.3v15.1"/><path class="st5" d="M186.8 53.8v.5"/></g><g class="st3"><path class="st4" d="M194.9 45.6h-16.7"/><path class="st5" d="M194.9 45.6h-.5"/><path class="st11" d="M193.4 45.6h-14.1"/><path class="st5" d="M178.7 45.6h-.5"/></g><path class="st2" d="M161.5 72.7H195m.4-72.1v-18.4h17.1V.6"/><g class="st3"><path class="st4" d="M204-17.3V.6"/><path class="st5" d="M204-17.3v.5"/><path class="st6" d="M204-15.8V-.4"/><path class="st5" d="M204 .1v.5"/></g><g class="st3"><path class="st4" d="M212.5-8.6h-17.1"/><path class="st5" d="M212.5-8.6h-.5"/><path class="st7" d="M211.1-8.6h-14.7"/><path class="st5" d="M195.9-8.6h-.5"/></g><path class="st2" d="M195.4-18.3v-17.9h17.1v17.9"/><g class="st3"><path class="st4" d="M204-35.7v17.4"/><path class="st5" d="M204-35.7v.5"/><path class="st8" d="M204-34.2v15"/><path class="st5" d="M204-18.8v.5"/></g><g class="st3"><path class="st4" d="M212.5-27h-17.1"/><path class="st5" d="M212.5-27h-.5"/><path class="st7" d="M211.1-27h-14.7"/><path class="st5" d="M195.9-27h-.5"/></g><path class="st2" d="M213-17.8h16.7V.6"/><g class="st3"><path class="st4" d="M221.1-17.3V.6"/><path class="st5" d="M221.1-17.3v.5"/><path class="st9" d="M221.1-15.8V-.4"/><path class="st5" d="M221.1.1v.5"/></g><g class="st3"><path class="st4" d="M229.7-8.6h-17.2"/><path class="st5" d="M229.7-8.6h-.5"/><path class="st7" d="M228.3-8.6h-14.8"/><path class="st5" d="M213-8.6h-.5"/></g><path class="st2" d="M213-36.2h16.7v17.9"/><g class="st3"><path class="st4" d="M221.1-35.7v17.4"/><path class="st5" d="M221.1-35.7v.5"/><path class="st10" d="M221.1-34.3v15.1"/><path class="st5" d="M221.1-18.8v.5"/></g><g class="st3"><path class="st4" d="M229.3-27h-16.8"/><path class="st5" d="M229.3-27h-.5"/><path class="st11" d="M227.7-27h-14.1"/><path class="st5" d="M213-27h-.5"/></g><path class="st2" d="M195.8.1h33.5m-33.9 36.8V18.5h17.1v18.4"/><g class="st3"><path class="st4" d="M204 19v17.9"/><path class="st5" d="M204 19v.5"/><path class="st6" d="M204 20.5v15.4"/><path class="st5" d="M204 36.4v.5"/></g><g class="st3"><path class="st4" d="M212.5 27.7h-17.1"/><path class="st5" d="M212.5 27.7h-.5"/><path class="st7" d="M211.1 27.7h-14.7"/><path class="st5" d="M195.9 27.7h-.5"/></g><path class="st2" d="M195.4 18V.1h17.1V18"/><g class="st3"><path class="st4" d="M204 .6V18"/><path class="st5" d="M204 .6v.5"/><path class="st8" d="M204 2.1v15"/><path class="st5" d="M204 17.5v.5"/></g><g class="st3"><path class="st4" d="M212.5 9.3h-17.1"/><path class="st5" d="M212.5 9.3h-.5"/><path class="st7" d="M211.1 9.3h-14.7"/><path class="st5" d="M195.9 9.3h-.5"/></g><path class="st2" d="M213 18.5h16.7v18.4"/><g class="st3"><path class="st4" d="M221.1 19v17.9"/><path class="st5" d="M221.1 19v.5"/><path class="st9" d="M221.1 20.5v15.4"/><path class="st5" d="M221.1 36.4v.5"/></g><g class="st3"><path class="st4" d="M229.7 27.7h-17.2"/><path class="st5" d="M229.7 27.7h-.5"/><path class="st7" d="M228.3 27.7h-14.8"/><path class="st5" d="M213 27.7h-.5"/></g><path class="st2" d="M213 .1h16.7V18"/><g class="st3"><path class="st4" d="M221.1.6V18"/><path class="st5" d="M221.1.6v.5"/><path class="st10" d="M221.1 2v15.1"/><path class="st5" d="M221.1 17.5v.5"/></g><g class="st3"><path class="st4" d="M229.3 9.3h-16.8"/><path class="st5" d="M229.3 9.3h-.5"/><path class="st11" d="M227.7 9.3h-14.1"/><path class="st5" d="M213 9.3h-.5"/></g><path class="st2" d="M195.8 36.4h33.5m-68.2.5V18.5h17.1v18.4"/><g class="st3"><path class="st4" d="M169.7 19v17.9"/><path class="st5" d="M169.7 19v.5"/><path class="st6" d="M169.7 20.5v15.4"/><path class="st5" d="M169.7 36.4v.5"/></g><g class="st3"><path class="st4" d="M178.2 27.7h-17.1"/><path class="st5" d="M178.2 27.7h-.5"/><path class="st7" d="M176.8 27.7h-14.7"/><path class="st5" d="M161.6 27.7h-.5"/></g><path class="st2" d="M161.1 18V.1h17.1V18"/><g class="st3"><path class="st4" d="M169.7.6V18"/><path class="st5" d="M169.7.6v.5"/><path class="st8" d="M169.7 2.1v15"/><path class="st5" d="M169.7 17.5v.5"/></g><g class="st3"><path class="st4" d="M178.2 9.3h-17.1"/><path class="st5" d="M178.2 9.3h-.5"/><path class="st7" d="M176.8 9.3h-14.7"/><path class="st5" d="M161.6 9.3h-.5"/></g><path class="st2" d="M178.7 18.5h16.7v18.4"/><g class="st3"><path class="st4" d="M186.8 19v17.9"/><path class="st5" d="M186.8 19v.5"/><path class="st9" d="M186.8 20.5v15.4"/><path class="st5" d="M186.8 36.4v.5"/></g><g class="st3"><path class="st4" d="M195.4 27.7h-17.2"/><path class="st5" d="M195.4 27.7h-.5"/><path class="st7" d="M193.9 27.7h-14.7"/><path class="st5" d="M178.7 27.7h-.5"/></g><path class="st2" d="M178.7.1h16.7V18"/><g class="st3"><path class="st4" d="M186.8.6V18"/><path class="st5" d="M186.8.6v.5"/><path class="st10" d="M186.8 2v15.1"/><path class="st5" d="M186.8 17.5v.5"/></g><g class="st3"><path class="st4" d="M194.9 9.3h-16.7"/><path class="st5" d="M194.9 9.3h-.5"/><path class="st11" d="M193.4 9.3h-14.1"/><path class="st5" d="M178.7 9.3h-.5"/></g><path class="st2" d="M161.5 36.4H195M161.1.6v-18.4h17.1V.6"/><g class="st3"><path class="st4" d="M169.7-17.3V.6"/><path class="st5" d="M169.7-17.3v.5"/><path class="st6" d="M169.7-15.8V-.4"/><path class="st5" d="M169.7.1v.5"/></g><g class="st3"><path class="st4" d="M178.2-8.6h-17.1"/><path class="st5" d="M178.2-8.6h-.5"/><path class="st7" d="M176.8-8.6h-14.7"/><path class="st5" d="M161.6-8.6h-.5"/></g><path class="st2" d="M161.1-18.3v-17.9h17.1v17.9"/><g class="st3"><path class="st4" d="M169.7-35.7v17.4"/><path class="st5" d="M169.7-35.7v.5"/><path class="st8" d="M169.7-34.2v15"/><path class="st5" d="M169.7-18.8v.5"/></g><g class="st3"><path class="st4" d="M178.2-27h-17.1"/><path class="st5" d="M178.2-27h-.5"/><path class="st7" d="M176.8-27h-14.7"/><path class="st5" d="M161.6-27h-.5"/></g><path class="st2" d="M178.7-17.8h16.7V.6"/><g class="st3"><path class="st4" d="M186.8-17.3V.6"/><path class="st5" d="M186.8-17.3v.5"/><path class="st9" d="M186.8-15.8V-.4"/><path class="st5" d="M186.8.1v.5"/></g><g class="st3"><path class="st4" d="M195.4-8.6h-17.2"/><path class="st5" d="M195.4-8.6h-.5"/><path class="st7" d="M193.9-8.6h-14.7"/><path class="st5" d="M178.7-8.6h-.5"/></g><path class="st2" d="M178.7-36.2h16.7v17.9"/><g class="st3"><path class="st4" d="M186.8-35.7v17.4"/><path class="st5" d="M186.8-35.7v.5"/><path class="st10" d="M186.8-34.3v15.1"/><path class="st5" d="M186.8-18.8v.5"/></g><g class="st3"><path class="st4" d="M194.9-27h-16.7"/><path class="st5" d="M194.9-27h-.5"/><path class="st11" d="M193.4-27h-14.1"/><path class="st5" d="M178.7-27h-.5"/></g><path class="st2" d="M161.5.1H195"/></g><text transform="translate(31.563 46.112)" class="st12 st13 st14">A</text><path class="st15" d="M35.6 8.9c-.3 0-.4.1-.6.1h-.1l-1.2.3c-.3.1-.4.3-.4.6.1.2.3.4.5.4h.1c.6-.2 1.3-.3 1.9-.4.3 0 .5-.3.4-.6-.1-.3-.3-.4-.6-.4zm-4.7 1.3h-.2c-.4.1-.8.3-1.2.5h-.1c-.3.1-.4.4-.2.7.1.2.3.3.5.3h.2c.6-.3 1.2-.5 1.8-.7.3-.1.4-.4.3-.6-.7-.1-.9-.2-1.1-.2zm-4.4 2.1c-.1 0-.2 0-.3.1-.3.2-.5.3-.8.5-.2.1-.4.3-.6.4-.2.2-.3.5-.1.7.1.1.3.2.4.2.1 0 .2 0 .3-.1.5-.4 1.1-.7 1.6-1 .2-.1.3-.4.2-.7-.4 0-.6-.1-.7-.1zm-4 2.8c-.1 0-.2 0-.3.1-.5.4-1 .9-1.4 1.3-.2.2-.2.5 0 .7.1.1.2.1.4.1.1 0 .3 0 .4-.1.5-.5.9-.9 1.4-1.3.2-.2.2-.5.1-.7-.3 0-.5-.1-.6-.1zm-3.4 3.6c-.1 0-.3.1-.4.2-.2.3-.4.5-.6.8-.2.2-.1.5.1.7.1.1.2.1.3.1.2 0 .3-.1.4-.2l1.2-1.5c.2-.2.1-.5-.1-.7-.7.6-.8.6-.9.6zm-2.7 4c-.2 0-.3.1-.4.3-.1.1-.1.2-.2.3-.2.4-.4.7-.5 1.1-.1.3 0 .5.2.7h.2c.2 0 .4-.1.5-.3.3-.6.6-1.2.9-1.7.1-.2 0-.5-.2-.7-.4.4-.5.3-.5.3zm-2 4.5c-.2 0-.4.1-.5.3 0 .1-.1.2-.1.2v.2c-.1.5-.3.9-.4 1.4-.1.3.1.5.4.6h.1c.2 0 .4-.2.5-.4.2-.6.3-1.2.5-1.8.1-.3-.1-.5-.3-.6-.1.2-.2.1-.2.1zM13.3 32c-.2 0-.5.2-.5.4-.1.7-.2 1.3-.2 2 0 .3.2.5.5.5s.5-.2.5-.5c0-.6.1-1.3.2-1.9 0-.2-.2-.4-.5-.5zm-.3 4.9c-.3 0-.5.2-.5.5v.7c0 .2 0 .5.1.7 0 .3.2.4.5.4h.1c.3 0 .5-.3.4-.6-.1-.6-.1-1.3-.1-1.9 0 .4-.2.2-.5.2zm.6 4.9h-.1c-.3.1-.4.3-.4.6 0 .1 0 .2.1.2.1.5.2.9.4 1.4.1.2.3.4.5.4h.1c.3-.1.4-.4.3-.6-.2-.6-.3-1.2-.5-1.9.1 0-.1-.1-.4-.1zm1.5 4.7h-.2c-.3.1-.4.4-.3.7.1.1.1.3.2.4.1.2.2.5.3.7.1.2.3.3.4.3.1 0 .2 0 .2-.1.2-.1.3-.4.2-.7-.3-.6-.6-1.2-.8-1.8.4.6.2.5 0 .5zm2.3 4.3c-.1 0-.2 0-.3.1-.2.1-.3.5-.1.7 0 0 0 .1.1.1.2.4.5.7.7 1.1.1.1.2.2.4.2.1 0 .2 0 .3-.1.2-.2.3-.5.1-.7-.4-.5-.8-1-1.1-1.6.2.3 0 .2-.1.2zm3 3.9c-.1 0-.2 0-.3.1-.2.2-.2.5 0 .7l.7.7c.1.1.2.1.3.1.1 0 .3-.1.4-.2.2-.2.2-.5 0-.7-.5-.4-.9-.9-1.4-1.4.6.7.4.7.3.7zM24 58c-.2 0-.3.1-.4.2-.2.2-.1.5.1.7.2.2.5.4.7.5 0 0 .1 0 .1.1.1.1.2.1.3.1.2 0 .3-.1.4-.2.1-.2.1-.5-.2-.7-.5-.3-1.1-.7-1.6-1.1.8.4.7.4.6.4zm4.2 2.5c-.2 0-.4.1-.4.3-.1.2 0 .5.2.7.6.3 1.2.6 1.8.8h.2c.2 0 .4-.1.5-.3.1-.3 0-.5-.3-.7-.6-.2-1.2-.5-1.8-.8h-.2zm4.6 1.8c-.2 0-.4.1-.5.4-.1.3.1.5.3.6.1 0 .2.1.3.1.4.1.9.2 1.3.3h.1c.2 0 .4-.2.5-.4.1-.3-.1-.5-.4-.6-.6-.1-1.3-.3-1.9-.5.4.1.3.1.3.1zm4.8 1c-.3 0-.5.2-.5.4 0 .3.2.5.4.5.6.1 1.3.1 1.9.1.3 0 .5-.2.5-.5s-.2-.5-.5-.5c-.5.1-1.1 0-1.8 0zm6.8-.2c-.7.1-1.3.2-2 .2-.3 0-.5.3-.5.5 0 .3.2.5.5.5h.3c.2 0 .3 0 .5-.1.3 0 .5-.3.4-.6 1.3-.3 1.1-.5.8-.5zm4.8-1.1H49c-.6.2-1.2.4-1.8.5-.3.1-.4.3-.4.6.1.2.3.4.5.4h.1c.6-.2 1.3-.4 1.9-.6.3-.1.4-.4.3-.6 0-.2-.2-.3-.4-.3zm4.5-1.9c-.1 0-.2 0-.2.1-.6.3-1.1.6-1.7.9-.3.1-.4.4-.2.7.1.2.3.3.5.3h.2c.1 0 .1 0 .2-.1.1 0 .1-.1.2-.1h.1c.2-.1.3-.4.2-.7 1.1-1.1.9-1.1.7-1.1zm4.1-2.8c-.1 0-.2 0-.3.1L56 58.6c-.2.2-.3.5-.1.7.1.1.3.2.4.2.1 0 .2 0 .3-.1.1-.1.3-.2.4-.3l.3-.3.1-.1c.2-.2.2-.5.1-.7.6-.6.4-.7.3-.7zm3.5-3.4c-.1 0-.3.1-.4.2-.4.5-.9 1-1.3 1.4-.2.2-.2.5 0 .7.1.1.2.1.4.1.1 0 .3 0 .4-.1l.5-.5c.1-.1.2-.2.2-.3.2-.2.2-.5-.1-.7.5-.8.4-.8.3-.8zm2.9-4c-.2 0-.3.1-.4.2-.3.6-.7 1.1-1 1.6-.2.2-.1.5.1.7.1.1.2.1.3.1.2 0 .3-.1.4-.2.1-.1.1-.2.2-.2.3-.4.5-.8.8-1.2.1-.2.1-.5-.2-.7-.1-.2-.1-.3-.2-.3zm2.1-4.4c-.2 0-.4.1-.5.3-.2.6-.5 1.2-.7 1.8-.1.3 0 .5.2.7h.2c.2 0 .4-.1.5-.3.3-.6.5-1.2.8-1.8.1-.3 0-.5-.3-.6-.1-.1-.2-.1-.2-.1zm1.3-4.7c-.2 0-.4.2-.5.4-.1.6-.2 1.3-.4 1.9-.1.3.1.5.4.6h.1c.2 0 .4-.2.5-.4v-.1c.1-.3.1-.6.2-.9v-.1c.2-1.1 0-1.4-.3-1.4zm.4-4.9c-.3 0-.5.2-.5.5 0 .6 0 1.3-.1 1.9 0 .3.2.5.5.5s.5-.2.5-.5v-.5c.1-1.7-.1-1.9-.4-1.9zm-.4-4.9c-.1 0-.1 0 0 0-.4.1-.5.3-.5.6.1.6.2 1.3.3 1.9 0 .3.2.4.5.4h.1c.3 0 .5-.3.4-.6-.1-.7-.2-1.3-.3-2-.1-.1-.3-.3-.5-.3zm-1.3-4.7h-.2c-.3.1-.4.4-.3.6l.6 1.8c.1.2.3.4.5.4h.1c.3-.1.4-.4.3-.6-.1-.4-.2-.7-.4-1.1-.1-.2-.1-.3-.2-.5 0-.5-.2-.6-.4-.6zm-2.2-4.4c-.1 0-.2 0-.3.1-.2.1-.3.4-.2.7.3.5.6 1.1.9 1.7.1.2.3.3.4.3.1 0 .2 0 .2-.1.2-.1.3-.4.2-.7v-.2c-.1-.2-.2-.3-.3-.5-.5-1.3-.7-1.3-.9-1.3zm-2.8-4c-.1 0-.2 0-.3.1-.2.2-.2.5 0 .7l1.2 1.5c.1.1.2.2.4.2.1 0 .2 0 .3-.1.2-.2.3-.5.1-.7-.4-.5-.8-1.1-1.3-1.6-.2-.1-.3-.1-.4-.1zm-3.6-3.4c-.1 0-.3.1-.4.2-.2.2-.1.5.1.7.5.4 1 .8 1.5 1.3.1.1.2.1.3.1.1 0 .3-.1.4-.2.2-.2.2-.5 0-.7-.5-.5-1-.9-1.5-1.3-.2-.1-.3-.1-.4-.1zm-4.1-2.7c-.2 0-.3.1-.4.3-.1.2 0 .5.2.7.6.3 1.1.6 1.7 1 .1.1.2.1.3.1.2 0 .3-.1.4-.2.1-.2.1-.5-.2-.7-1.8-1.2-1.9-1.2-2-1.2zm-4.5-2c-.2 0-.4.1-.5.3-.1.3.1.5.3.6.6.2 1.2.4 1.8.7h.2c.2 0 .4-.1.5-.3.1-.3 0-.5-.3-.7-.3-.1-.5-.2-.8-.3-.4-.1-.7-.3-1.1-.4 0 .1 0 .1-.1.1zm-4.7-1.1c-.2 0-.5.2-.5.4 0 .3.2.5.4.6.6.1 1.3.2 1.9.3h.1c.2 0 .4-.2.5-.4.1-.3-.1-.5-.4-.6-.3-.1-.6-.1-.9-.2-.6 0-.8-.1-1.1-.1zm-3.9-.3c-.1 0-.1 0 0 0-.1 0-.1 0 0 0-.1 0-.1 0 0 0-.1 0-.1 0 0 0-.1 0-.1 0 0 0-.1 0-.1 0 0 0h-.6c-1.7.1-1.9.4-1.9.6 0 .3.2.5.5.5.6 0 1.3-.1 1.9-.1h.9c.3 0 .5-.2.5-.5s-.2-.5-.5-.5h-.8c.1 0 .1 0 0 0 .1 0 .1 0 0 0 .1 0 .1 0 0 0 .1 0 .1 0 0 0 .1 0 .1 0 0 0 .1 0 0 0 0 0z"/></svg>